<svg width="37" height="24" viewBox="0 0 37 24" fill="none" xmlns="http://www.w3.org/2000/svg">
<g id="svg-gobbler (2) 1" clip-path="url(#clip0_312_81)">
<path id="Vector" d="M2.8376 0.230713H34.2222C35.6242 0.230713 36.7607 1.36722 36.7607 2.76917V21.2307C36.7607 22.6327 35.6242 23.7692 34.2222 23.7692H2.8376C1.43564 23.7692 0.299133 22.6327 0.299133 21.2307V2.76917C0.299133 1.36722 1.43564 0.230713 2.8376 0.230713Z" fill="white" stroke="#AAAAAA" stroke-width="0.5"/>
<path id="Vector_2" d="M14.9566 17.8064H22.1012V6.18481H14.9566V17.7971V17.8064Z" fill="#F06022"/>
<path id="Vector_3" d="M15.6967 12.0001C15.6934 10.8799 15.947 9.77398 16.4384 8.7674C16.9297 7.76079 17.6454 6.88036 18.5305 6.19389C17.1036 5.07075 15.3135 4.51129 13.5009 4.62191C11.6883 4.73254 9.97962 5.50555 8.69978 6.79389C8.01431 7.47657 7.4704 8.2879 7.09928 9.1813C6.72816 10.0747 6.53711 11.0326 6.53711 12.0001C6.53711 12.9675 6.72816 13.9253 7.09928 14.8188C7.4704 15.7122 8.01431 16.5235 8.69978 17.2062C9.97962 18.4946 11.6883 19.2676 13.5009 19.3781C15.3135 19.4888 17.1036 18.9293 18.5305 17.8062C17.6501 17.1155 16.9377 16.2342 16.4468 15.2285C15.956 14.2229 15.6995 13.1191 15.6967 12.0001Z" fill="#EA1D25"/>
<path id="Vector_4" d="M30.5299 12.0001C30.5299 13.9571 29.7545 15.8309 28.3699 17.2155C27.0804 18.4906 25.3713 19.2535 23.561 19.3621C21.7508 19.4709 19.9628 18.9179 18.5299 17.8063C19.4089 17.1143 20.1202 16.2326 20.6109 15.2273C21.1016 14.222 21.359 13.1188 21.3638 12.0001C21.365 10.8803 21.1104 9.77515 20.6192 8.76887C20.1281 7.76258 19.4135 6.88186 18.5299 6.19397C19.9564 5.06706 21.7478 4.50446 23.5625 4.61341C25.3772 4.72236 27.0884 5.49525 28.3699 6.78474C29.0572 7.46782 29.6021 8.28057 29.9728 9.17584C30.3436 10.0711 30.533 11.0311 30.5299 12.0001Z" fill="#F79D1D"/>
<path id="Vector_5" d="M34.2222 0.230713H2.83759C1.43564 0.230713 0.299133 1.36722 0.299133 2.76917V21.2307C0.299133 22.6327 1.43564 23.7692 2.83759 23.7692H34.2222C35.6242 23.7692 36.7607 22.6327 36.7607 21.2307V2.76917C36.7607 1.36722 35.6242 0.230713 34.2222 0.230713Z" stroke="#AAAAAA" stroke-width="0.5"/>
</g>
<defs>
<clipPath id="clip0_312_81">
<rect width="36.9231" height="24" fill="white" transform="translate(0.0683594)"/>
</clipPath>
</defs>
</svg>
