<svg width="42" height="24" viewBox="0 0 42 24" fill="none" xmlns="http://www.w3.org/2000/svg">
<g id="Frame" clip-path="url(#clip0_312_87)">
<g id="Group">
<path id="Vector" fill-rule="evenodd" clip-rule="evenodd" d="M38.8494 24H2.29341C1.02653 24 0 22.9735 0 21.7066V2.29341C0 1.02653 1.02653 0 2.29341 0H38.8494C40.1163 0 41.1429 1.02653 41.1429 2.29341V21.7066C41.1429 22.9735 40.1163 24 38.8494 24Z" fill="#113984"/>
<g id="Group_2">
<path id="Vector_2" fill-rule="evenodd" clip-rule="evenodd" d="M8.70519 7.7532C9.7453 7.7532 10.7067 8.31807 10.5749 9.7248C10.4161 11.3963 9.5199 12.321 8.10638 12.3251H6.87073C6.69285 12.3251 6.60731 12.4704 6.56114 12.7664L6.32216 14.2845C6.28686 14.5139 6.16872 14.6266 5.99492 14.6266H4.84618C4.66287 14.6266 4.59905 14.5099 4.63979 14.2478L5.58756 8.16192C5.63509 7.86319 5.74643 7.75049 5.95147 7.75049H8.70111H8.70519V7.7532ZM6.83407 11.0107H7.76963C8.35486 10.989 8.74321 10.583 8.78259 9.85244C8.80703 9.40163 8.50151 9.07711 8.01676 9.07982L7.13551 9.0839L6.83407 11.0107ZM13.698 14.1623C13.8026 14.0672 13.9098 14.017 13.8949 14.1351L13.8569 14.4175C13.8379 14.5642 13.8962 14.6429 14.0334 14.6429H15.0545C15.2269 14.6429 15.3098 14.5737 15.3519 14.3075L15.9819 10.3603C16.0131 10.162 15.9656 10.0643 15.8149 10.0643H14.6919C14.5915 10.0643 14.5412 10.1213 14.5154 10.2747L14.4747 10.5178C14.453 10.6441 14.3946 10.6672 14.3403 10.5395C14.1502 10.0887 13.6641 9.88639 12.9865 9.90268C11.4127 9.93527 10.3509 11.1302 10.2368 12.6618C10.1486 13.8472 10.9986 14.7774 12.1175 14.7774C12.9295 14.7774 13.2934 14.5384 13.7021 14.1636L13.698 14.1623ZM12.8439 13.5553C12.1663 13.5553 11.6938 13.0149 11.7916 12.3522C11.8893 11.6896 12.5235 11.1492 13.201 11.1492C13.8786 11.1492 14.3511 11.6896 14.2534 12.3522C14.1542 13.0149 13.5215 13.5553 12.8439 13.5553ZM17.9793 10.052H16.9446C16.7314 10.052 16.6445 10.2109 16.7124 10.4078L17.997 14.1704L16.7369 15.9614C16.631 16.1108 16.7124 16.2479 16.8618 16.2479H18.0255C18.164 16.2642 18.2984 16.1977 18.3704 16.0782L22.3231 10.4078C22.4453 10.234 22.3882 10.0507 22.1873 10.0507H21.0861C20.8973 10.0507 20.8213 10.1254 20.714 10.2829L19.0656 12.6713L18.3296 10.2774C18.2862 10.1308 18.1789 10.052 17.9793 10.052Z" fill="#F5F5F5"/>
<path id="Vector_3" fill-rule="evenodd" clip-rule="evenodd" d="M26.4346 7.7532C27.4747 7.7532 28.4361 8.31807 28.3044 9.7248C28.1455 11.3963 27.2493 12.3224 25.8358 12.3264H24.6015C24.4237 12.3264 24.3381 12.4717 24.2919 12.7677L24.053 14.2858C24.0177 14.5153 23.8995 14.628 23.7257 14.628H22.577C22.3937 14.628 22.3299 14.5112 22.3706 14.2492L23.3211 8.16192C23.3686 7.86319 23.48 7.75049 23.685 7.75049H26.4346V7.7532ZM24.5635 11.0107H25.4991C26.0843 10.989 26.4727 10.583 26.512 9.85244C26.5365 9.40163 26.231 9.07711 25.7462 9.07982L24.865 9.0839L24.5635 11.0107ZM31.4274 14.1623C31.532 14.0672 31.6393 14.017 31.6243 14.1351L31.5863 14.4175C31.5673 14.5642 31.6257 14.6429 31.7628 14.6429H32.7839C32.9564 14.6429 33.0392 14.5737 33.0813 14.3075L33.71 10.3603C33.7412 10.162 33.6937 10.0643 33.543 10.0643H32.4214C32.3209 10.0643 32.2707 10.1213 32.2449 10.2747L32.2041 10.5178C32.1824 10.6441 32.124 10.6672 32.0697 10.5395C31.8796 10.0887 31.3935 9.88639 30.7159 9.90268C29.1422 9.93527 28.0804 11.1302 27.9663 12.6618C27.878 13.8472 28.728 14.7774 29.8469 14.7774C30.6589 14.7774 31.0228 14.5384 31.4315 14.1636L31.4274 14.1623ZM30.5734 13.5553C29.8958 13.5553 29.4233 13.0149 29.521 12.3522C29.6188 11.6896 30.2529 11.1492 30.9305 11.1492C31.608 11.1492 32.0806 11.6896 31.9828 12.3522C31.885 13.0149 31.2509 13.5553 30.5734 13.5553ZM35.2824 14.6484H34.1038C34.0264 14.6524 33.9612 14.5927 33.9585 14.5153C33.9585 14.5072 33.9585 14.4976 33.9598 14.4895L34.9945 7.93108C35.0149 7.83875 35.0964 7.77357 35.1901 7.77221H36.3687C36.4461 7.76814 36.5112 7.82789 36.514 7.90528C36.514 7.91343 36.514 7.92294 36.5126 7.93108L35.4779 14.4895C35.4575 14.5818 35.3774 14.6497 35.2824 14.6497V14.6484Z" fill="#009EE3"/>
</g>
</g>
</g>
<defs>
<clipPath id="clip0_312_87">
<rect width="41.1429" height="24" fill="white"/>
</clipPath>
</defs>
</svg>
